<!DOCTYPE svg PUBLIC "-//W3C//DTD SVG 20010904//EN" "http://www.w3.org/TR/2001/REC-SVG-20010904/DTD/svg10.dtd">
<svg version="1.0" xmlns="http://www.w3.org/2000/svg" width="512px" height="512px" viewBox="0 0 5120 5120" preserveAspectRatio="xMidYMid meet">
<g id="layer1" fill="#ffffff" stroke="none">
 <path d="M2203 5104 c-432 -43 -918 -255 -1283 -562 -433 -363 -729 -833 -860 -1365 -80 -327 -80 -907 0 -1234 117 -473 352 -879 711 -1229 338 -328 724 -543 1172 -654 327 -80 907 -80 1234 0 473 117 879 352 1229 711 328 338 543 724 654 1172 80 327 80 907 0 1234 -111 448 -326 834 -654 1172 -422 433 -960 703 -1507 756 -184 18 -512 17 -696 -1z m1275 -1030 c98 -19 259 -97 334 -161 120 -103 207 -240 250 -398 22 -79 22 -93 26 -865 4 -827 -1 -954 -39 -1071 -41 -126 -97 -218 -189 -309 -99 -99 -193 -156 -325 -197 l-90 -28 -885 0 -885 0 -90 28 c-132 41 -226 98 -325 197 -92 91 -148 183 -189 309 -38 117 -43 244 -39 1071 4 772 4 786 26 865 62 227 199 394 407 495 166 81 128 78 1088 79 730 1 859 -1 925 -15z"/>
 <path d="M1726 3779 c-181 -26 -341 -183 -376 -368 -13 -71 -14 -1604 0 -1686 27 -168 164 -316 335 -361 40 -11 218 -14 875 -14 657 0 835 3 875 14 169 45 303 187 335 355 14 73 14 1619 0 1692 -36 190 -194 341 -385 369 -86 12 -1574 11 -1659 -1z m1020 -459 c43 -11 121 -41 172 -66 192 -97 331 -270 394 -491 28 -99 30 -273 4 -378 -22 -93 -93 -236 -153 -310 -93 -114 -236 -208 -393 -256 -109 -34 -311 -34 -420 0 -157 48 -300 142 -393 256 -60 74 -131 217 -153 310 -23 94 -23 268 -1 359 70 283 288 504 567 576 104 26 270 27 376 0z m719 -1423 c47 -26 85 -92 85 -147 0 -54 -38 -121 -85 -148 -83 -48 -206 -10 -241 74 -27 65 -12 157 32 196 59 53 142 63 209 25z"/>
 <path d="M2452 3025 c-81 -18 -161 -64 -229 -133 -150 -153 -177 -394 -64 -571 92 -143 235 -223 401 -223 166 0 309 80 401 223 113 177 86 418 -64 571 -70 70 -148 115 -234 133 -83 18 -129 18 -211 0z"/>
 </g>

</svg>