<!DOCTYPE svg PUBLIC "-//W3C//DTD SVG 20010904//EN" "http://www.w3.org/TR/2001/REC-SVG-20010904/DTD/svg10.dtd">
<svg version="1.0" xmlns="http://www.w3.org/2000/svg" width="512px" height="512px" viewBox="0 0 5120 5120" preserveAspectRatio="xMidYMid meet">
<g id="layer1" fill="#e7e7e7" stroke="none">
 <path d="M3780 5105 c-617 -54 -1409 -452 -2080 -1045 -305 -269 -684 -663 -931 -965 -330 -405 -555 -788 -672 -1146 -72 -220 -97 -391 -97 -666 1 -406 53 -607 226 -868 61 -94 308 -342 369 -373 23 -11 78 -26 124 -33 95 -15 207 -1 276 33 58 29 915 886 950 951 54 98 67 196 40 300 -30 114 -56 150 -286 382 l-219 221 88 155 c238 416 421 656 718 940 214 205 453 376 804 575 l145 83 230 -228 c202 -200 238 -231 295 -256 110 -50 254 -47 365 8 42 20 894 861 941 928 52 75 70 245 40 362 -22 83 -57 131 -195 265 -186 181 -345 279 -551 341 -171 52 -302 60 -580 36z"/>
 </g>

</svg>