<!DOCTYPE svg PUBLIC "-//W3C//DTD SVG 20010904//EN" "http://www.w3.org/TR/2001/REC-SVG-20010904/DTD/svg10.dtd">
<svg version="1.0" xmlns="http://www.w3.org/2000/svg" width="512px" height="512px" viewBox="0 0 5120 5120" preserveAspectRatio="xMidYMid meet">
<g id="layer1" fill="#66cc66" stroke="none">
 <path d="M694 5086 l-34 -34 0 -2492 0 -2492 34 -34 c31 -31 40 -34 90 -34 32 0 70 7 87 16 68 35 3517 2419 3552 2455 33 34 37 44 37 89 0 45 -4 55 -37 89 -35 36 -3484 2420 -3552 2455 -17 9 -55 16 -87 16 -50 0 -59 -3 -90 -34z"/>
 </g>

</svg>