<!DOCTYPE svg PUBLIC "-//W3C//DTD SVG 20010904//EN" "http://www.w3.org/TR/2001/REC-SVG-20010904/DTD/svg10.dtd">
<svg version="1.0" xmlns="http://www.w3.org/2000/svg" width="512px" height="512px" viewBox="0 0 5120 5120" preserveAspectRatio="xMidYMid meet">
<g id="layer1" fill="#ffffff" stroke="none">
 <path d="M685 5104 c-104 -17 -273 -101 -367 -181 -159 -137 -275 -327 -303 -498 -22 -135 -22 -3595 0 -3730 19 -113 98 -278 180 -375 136 -160 328 -277 500 -305 135 -22 3595 -22 3730 0 172 28 364 145 500 305 82 97 161 262 180 375 22 135 22 3595 0 3730 -28 172 -145 364 -305 500 -97 82 -262 161 -375 180 -128 21 -3615 20 -3740 -1z m2297 -1281 c224 -63 365 -156 464 -305 93 -139 131 -289 121 -471 -15 -284 -157 -461 -427 -533 -69 -19 -93 -31 -85 -44 3 -5 39 -25 80 -45 129 -64 220 -181 260 -335 21 -80 24 -227 6 -300 -47 -190 -187 -332 -396 -401 -70 -23 -73 -23 -702 -27 l-633 -3 0 1246 0 1246 618 -3 c597 -4 620 -5 694 -25z"/>
 <path d="M2235 3407 c-3 -7 -4 -154 -3 -327 l3 -315 245 0 c288 0 335 9 406 80 138 139 133 367 -12 494 -51 46 -87 59 -191 71 -132 15 -442 13 -448 -3z"/>
 <path d="M2235 2347 c-3 -7 -4 -136 -3 -287 l3 -275 200 0 c228 0 250 5 314 67 62 59 85 116 85 208 0 144 -79 251 -208 284 -83 21 -384 23 -391 3z"/>
 </g>

</svg>